<svg xmlns="http://www.w3.org/2000/svg" viewBox="0 0 720 300" width="720" height="300">
  <defs>
    <style>
      text { font-family: -apple-system, BlinkMacSystemFont, 'Helvetica Neue', Arial, sans-serif; }
    </style>
  </defs>

  <!-- Background -->
  <rect width="720" height="300" fill="#ffffff" rx="10"/>

  <!-- Three stats -->
  <text x="120" y="42" text-anchor="middle" fill="#999" font-size="11" font-weight="500" letter-spacing="0.08em">POTENTIAL VULNERABILITIES</text>
  <text x="120" y="90" text-anchor="middle" fill="#1a1a1a" font-size="48" font-weight="700">825</text>
  <text x="120" y="112" text-anchor="middle" fill="#aaa" font-size="11">across 13 benchmarks</text>

  <line x1="240" y1="32" x2="240" y2="118" stroke="#e0e0e0" stroke-width="1"/>

  <text x="360" y="42" text-anchor="middle" fill="#999" font-size="11" font-weight="500" letter-spacing="0.08em">CONFIRMED EXPLOITS</text>
  <text x="360" y="90" text-anchor="middle" fill="#1a1a1a" font-size="48" font-weight="700">45</text>
  <text x="360" y="112" text-anchor="middle" fill="#aaa" font-size="11">with working PoC</text>

  <line x1="480" y1="32" x2="480" y2="118" stroke="#e0e0e0" stroke-width="1"/>

  <text x="600" y="42" text-anchor="middle" fill="#999" font-size="11" font-weight="500" letter-spacing="0.08em">CRITICAL RISK</text>
  <text x="600" y="90" text-anchor="middle" fill="#1a1a1a" font-size="48" font-weight="700">13/13</text>
  <text x="600" y="112" text-anchor="middle" fill="#aaa" font-size="11">benchmarks audited</text>

  <!-- Divider -->
  <line x1="36" y1="138" x2="684" y2="138" stroke="#e8e8e8" stroke-width="1"/>

  <!-- Bar chart — single color, decreasing opacity -->
  <text x="36" y="170" fill="#666" font-size="11">Writable reference files</text>
  <rect x="230" y="158" width="400" height="16" rx="3" fill="#333"/>
  <text x="638" y="170" fill="#fff" font-size="10" font-weight="600">83</text>

  <text x="36" y="194" fill="#666" font-size="11">Weak test assertions</text>
  <rect x="230" y="182" width="386" height="16" rx="3" fill="#444"/>
  <text x="624" y="194" fill="#fff" font-size="10" font-weight="600">80</text>

  <text x="36" y="218" fill="#666" font-size="11">Code generation loopholes</text>
  <rect x="230" y="206" width="304" height="16" rx="3" fill="#555"/>
  <text x="541" y="218" fill="#fff" font-size="10" font-weight="600">63</text>

  <text x="36" y="242" fill="#666" font-size="11">Environment manipulation</text>
  <rect x="230" y="230" width="299" height="16" rx="3" fill="#666"/>
  <text x="536" y="242" fill="#fff" font-size="10" font-weight="600">62</text>

  <text x="36" y="266" fill="#666" font-size="11">Score injection</text>
  <rect x="230" y="254" width="265" height="16" rx="3" fill="#777"/>
  <text x="502" y="266" fill="#fff" font-size="10" font-weight="600">55</text>

  <text x="36" y="290" fill="#666" font-size="11">Answer leakage</text>
  <rect x="230" y="278" width="236" height="16" rx="3" fill="#888"/>
  <text x="473" y="290" fill="#fff" font-size="10" font-weight="600">49</text>
</svg>